<?xml version="1.0" encoding="UTF-8" standalone="no"?>
<svg
   xmlns:dc="http://purl.org/dc/elements/1.1/"
   xmlns:cc="http://creativecommons.org/ns#"
   xmlns:rdf="http://www.w3.org/1999/02/22-rdf-syntax-ns#"
   xmlns:svg="http://www.w3.org/2000/svg"
   xmlns="http://www.w3.org/2000/svg"
   xmlns:sodipodi="http://sodipodi.sourceforge.net/DTD/sodipodi-0.dtd"
   xmlns:inkscape="http://www.inkscape.org/namespaces/inkscape"
   width="368.503pt"
   height="368.503pt"
   viewBox="0 0 368.503 368.503"
   version="1.2"
   id="svg75"
   sodipodi:docname="Logo Kaffeebar Eleven.svg"
   inkscape:version="0.92.1 r15371">
  <metadata
     id="metadata81">
    <rdf:RDF>
      <cc:Work
         rdf:about="">
        <dc:format>image/svg+xml</dc:format>
        <dc:type
           rdf:resource="http://purl.org/dc/dcmitype/StillImage" />
        <dc:title></dc:title>
      </cc:Work>
    </rdf:RDF>
  </metadata>
  <defs
     id="defs79" />
  <sodipodi:namedview
     pagecolor="#ffffff"
     bordercolor="#666666"
     borderopacity="1"
     objecttolerance="10"
     gridtolerance="10"
     guidetolerance="10"
     inkscape:pageopacity="0"
     inkscape:pageshadow="2"
     inkscape:window-width="1920"
     inkscape:window-height="1012"
     id="namedview77"
     showgrid="false"
     inkscape:zoom="1.3585551"
     inkscape:cx="265.15912"
     inkscape:cy="213.21131"
     inkscape:window-x="0"
     inkscape:window-y="32"
     inkscape:window-maximized="1"
     inkscape:current-layer="svg75" />
  <g
     id="surface711"
     transform="matrix(1.503015,0,0,1.4633222,-93.555795,-84.650355)">
    <path
       style="fill:#545454;fill-opacity:1;fill-rule:nonzero;stroke:none"
       d="m 177.36328,120.33984 c 0,0 0.0312,0.10938 0.0859,0.32032 0.0469,0.21484 0.1289,0.52734 0.19531,0.91406 0.0742,0.39062 0.23438,0.83594 0.34766,1.33594 0.13281,0.49218 0.3125,1.05468 0.48828,1.63672 0.21094,0.58984 0.40625,1.21484 0.6914,1.83593 0.0625,0.15235 0.125,0.3125 0.19141,0.47266 0.0781,0.15234 0.15625,0.29687 0.23047,0.45312 0.15625,0.30469 0.29297,0.6211 0.49219,0.90235 0.17968,0.28515 0.34375,0.58984 0.55078,0.83203 l 0.29687,0.39062 0.42578,0.58985 c 0.23047,0.28125 0.54297,0.83203 0.79297,1.32422 0.23828,0.49218 0.42578,0.94921 0.60547,1.42578 0.3086,0.95312 0.55469,1.92578 0.64844,2.88281 0.0703,0.47656 0.0977,0.95312 0.10547,1.42578 0.0273,0.46484 0,0.92578 -0.0312,1.37891 -0.0469,0.90234 -0.19531,1.76562 -0.38281,2.5664 -0.20313,0.79688 -0.45704,1.53125 -0.75,2.19141 -0.30469,0.64453 -0.60157,1.22656 -0.94922,1.69141 -0.3086,0.48828 -0.67188,0.85156 -0.94532,1.14453 -0.26171,0.30468 -0.55078,0.47265 -0.71093,0.61328 -0.17578,0.125 -0.26172,0.1875 -0.26172,0.1875 0,0 0.0273,-0.11328 0.0781,-0.32422 0.0508,-0.21094 0.13672,-0.5 0.21485,-0.87891 0.0703,-0.375 0.16015,-0.82422 0.21484,-1.33984 0.0352,-0.25391 0.0703,-0.51953 0.082,-0.80078 0.0156,-0.29297 0.0703,-0.57422 0.0625,-0.88672 0.0508,-1.23047 0.0117,-2.63672 -0.16015,-4.10547 -0.0859,-0.73437 -0.19922,-1.48437 -0.35547,-2.21875 -0.14844,-0.74219 -0.35157,-1.46094 -0.58203,-2.15625 -0.11719,-0.33594 -0.25782,-0.69531 -0.38282,-0.98828 -0.15625,-0.26953 -0.1875,-0.50391 -0.46484,-0.90625 l -0.16406,-0.27734 -0.0781,-0.13282 -0.0195,-0.0312 -0.008,-0.0156 c 0.0273,0.0391 -0.0625,-0.0937 0.0586,0.0859 l -0.0117,-0.0234 -0.0547,-0.0859 c -0.125,-0.22656 -0.2461,-0.44141 -0.37891,-0.66406 -0.26953,-0.44141 -0.44141,-0.89844 -0.60547,-1.34375 -0.18359,-0.44531 -0.30859,-0.89063 -0.39844,-1.33203 -0.10547,-0.4336 -0.19531,-0.85547 -0.23047,-1.27344 -0.11328,-0.82812 -0.0977,-1.60937 -0.082,-2.32031 0.0664,-0.71485 0.13282,-1.34375 0.25782,-1.91406 0.13671,-0.56641 0.2539,-1.05469 0.39453,-1.42579 0.13672,-0.36328 0.27734,-0.65234 0.35547,-0.85546 0.0937,-0.19532 0.14062,-0.30079 0.14062,-0.30079"
       id="path2"
       inkscape:connector-curvature="0" />
    <path
       style="fill:#545454;fill-opacity:1;fill-rule:nonzero;stroke:none"
       d="m 186.02734,102.78125 c 0,0 -0.043,0.16797 -0.12109,0.48047 -0.0898,0.30078 -0.22656,0.76562 -0.31641,1.31641 -0.11328,0.51953 -0.1875,1.20312 -0.27343,1.94531 -0.0195,0.38672 -0.0703,0.77344 -0.082,1.1914 0.004,0.42579 -0.0391,0.85157 -0.0156,1.3086 0.0156,0.90625 0.043,1.87109 0.17969,2.875 0.082,1.00781 0.29687,2.04297 0.49218,3.08984 0.26172,1.03516 0.55079,2.07422 0.9336,3.04297 0.40625,0.95703 0.85547,1.86328 1.39844,2.58984 l 0.15625,0.23047 0.0664,0.10547 0.12891,0.19922 0.25781,0.40625 c 0.0469,0.0742 0.082,0.125 0.13672,0.21484 l 0.15234,0.28907 0.30469,0.58593 0.28516,0.58204 0.20312,0.53906 c 0.12891,0.36328 0.28125,0.71875 0.3711,1.07812 0.10156,0.35547 0.20312,0.71094 0.30078,1.07422 0.0898,0.35547 0.13672,0.71094 0.19922,1.0625 0.14062,0.70313 0.18359,1.40625 0.23828,2.08984 0.043,1.36719 0,2.67969 -0.20313,3.89454 -0.17578,1.22265 -0.49219,2.34375 -0.83594,3.35156 -0.17578,0.49609 -0.39062,0.96875 -0.57812,1.41015 -0.21484,0.4336 -0.44141,0.83594 -0.64844,1.20704 -0.46094,0.73046 -0.89453,1.32421 -1.32422,1.76562 -0.39062,0.45703 -0.77734,0.74219 -1.01953,0.94531 -0.25,0.19532 -0.38672,0.28907 -0.38672,0.28907 0,0 0.0391,-0.16797 0.1211,-0.48047 0.082,-0.29688 0.21484,-0.73828 0.30468,-1.29688 0.125,-0.54297 0.20313,-1.22265 0.28516,-1.96484 0.0156,-0.38281 0.0703,-0.77344 0.0781,-1.19141 -0.008,-0.42187 0.0352,-0.85156 0.008,-1.30469 -0.0156,-0.90625 -0.043,-1.87109 -0.16797,-2.8789 -0.0898,-1.00391 -0.29297,-2.04297 -0.50391,-3.08594 -0.25,-1.03516 -0.54297,-2.07031 -0.92968,-3.04297 -0.0859,-0.25 -0.21094,-0.46875 -0.3125,-0.70703 l -0.15625,-0.34765 -0.14454,-0.27344 -0.14062,-0.26953 -0.0664,-0.13672 c -0.0273,-0.0547 -0.0859,-0.12891 -0.1289,-0.19141 l -0.39844,-0.59765 -0.0703,-0.0977 -0.0312,-0.0508 -0.0195,-0.0273 -0.008,-0.0117 c 0.0391,0.0547 -0.0977,-0.14063 0.0859,0.12109 -0.96094,-1.35547 -1.625,-2.79297 -2.06641,-4.23047 -0.0937,-0.36328 -0.19921,-0.71484 -0.29687,-1.07031 -0.0781,-0.36328 -0.12891,-0.71875 -0.19922,-1.07031 -0.13672,-0.69922 -0.17969,-1.40235 -0.23047,-2.08594 -0.0469,-1.36719 0,-2.67969 0.20313,-3.89844 0.17187,-1.21875 0.49218,-2.34375 0.83593,-3.35156 0.17969,-0.4961 0.38672,-0.96485 0.58204,-1.40235 0.21484,-0.4375 0.4375,-0.83984 0.64453,-1.21093 0.46093,-0.72657 0.88281,-1.32422 1.32422,-1.77735 0.40234,-0.47656 0.77343,-0.73047 1.01562,-0.92968 0.24609,-0.19141 0.38281,-0.29688 0.38281,-0.29688"
       id="path4"
       inkscape:connector-curvature="0" />
    <path
       style="fill:#005e68;fill-opacity:1;fill-rule:nonzero;stroke:none"
       d="m 139.35937,141.85156 c 0.0742,0.16016 0,0.51953 -0.24218,1.07422 -0.23438,0.55859 -0.5586,1.17969 -0.95313,1.85156 -0.40234,0.67969 -0.83984,1.33985 -1.32031,1.97266 -0.47656,0.64062 -0.875,1.08203 -1.19141,1.32031 h -23.3125 c 0.0781,0.16016 0.11719,0.33594 0.11719,0.53516 0,0.19531 0.043,0.3789 0.1211,0.53906 -0.55079,1.75 -1.21485,4 -1.96875,6.75391 -0.75782,2.74609 -1.57813,5.83593 -2.45313,9.26172 -0.875,3.42578 -1.78906,7.09765 -2.75,10.99609 -0.95703,3.91016 -1.91016,7.89453 -2.86719,11.95703 h 22.59375 c 0.16016,0.16016 0.17969,0.5 0.0586,1.01953 -0.11719,0.51563 -0.29688,1.07422 -0.53907,1.67188 -0.23437,0.60156 -0.53515,1.17968 -0.89453,1.74218 -0.35547,0.55469 -0.69922,0.94532 -1.01562,1.1875 h -7.53125 c -1.99219,0 -4.22656,0.0234 -6.69141,0.0586 -2.47265,0.0469 -4.90625,0.0625 -7.29297,0.0625 -1.597654,6.45312 -3.031248,12.53125 -4.304685,18.23047 -1.277344,5.69922 -2.234375,10.34375 -2.867187,13.92578 h 17.992192 c 2.98437,0 5.61718,0.0156 7.88671,0.0586 2.26563,0.0391 3.67969,0.0625 4.24219,0.0625 0.082,0.15625 0,0.51563 -0.24219,1.07031 -0.23828,0.55469 -0.55468,1.17969 -0.95312,1.85547 -0.39844,0.67578 -0.83594,1.33203 -1.31641,1.97266 -0.48047,0.63672 -0.875,1.07422 -1.1914,1.31641 H 83.414062 c 0.08203,-0.40235 0.257813,-0.90235 0.535157,-1.49219 0.285156,-0.59766 0.597656,-1.21875 0.960937,-1.85156 0.355469,-0.64454 0.753906,-1.22266 1.191406,-1.73438 0.441407,-0.52734 0.941407,-0.90625 1.496094,-1.13672 h 0.773438 c 0.363281,0 0.820312,-0.043 1.382812,-0.12109 0.152344,-2.07422 0.414063,-4.46485 0.773438,-7.17188 0.359375,-2.71093 0.757812,-5.5039 1.195312,-8.36718 0.4375,-2.8711 0.898438,-5.74219 1.375,-8.60938 0.476563,-2.86719 0.957032,-5.53516 1.429688,-8.00781 -1.753906,0 -3.308594,-0.0156 -4.65625,-0.0625 -1.355469,-0.0352 -2.429688,-0.0586 -3.226563,-0.0586 0.238281,-0.71484 0.835938,-1.71093 1.785157,-2.98828 0.964843,-1.27734 1.800781,-2.15234 2.515624,-2.63281 h 4.664063 c 0.234375,-1.03125 0.472656,-1.98828 0.714844,-2.86719 0.08203,-0.39843 0.296875,-1.33593 0.65625,-2.8125 0.355469,-1.47265 0.777343,-3.30468 1.257812,-5.49609 0.480469,-2.19141 1.03125,-4.58594 1.671875,-7.17188 0.636724,-2.59375 1.257814,-5.20703 1.851564,-7.83203 0.60156,-2.6289 1.19922,-5.14062 1.79687,-7.52734 0.59375,-2.39453 1.08985,-4.50391 1.49219,-6.33594 H 94.890625 c 0.07813,-0.40234 0.257813,-0.90234 0.535156,-1.5 0.277344,-0.59375 0.597657,-1.21484 0.960938,-1.85156 0.355469,-0.63281 0.773437,-1.21094 1.25,-1.73047 0.480469,-0.51562 0.996093,-0.89844 1.554687,-1.13672 z m 0,0"
       id="path6"
       inkscape:connector-curvature="0" />
    <path
       style="fill:#005e68;fill-opacity:1;fill-rule:nonzero;stroke:none"
       d="m 148.20703,192.05859 c 0.3125,-0.55078 0.71094,-0.91406 1.19141,-1.07031 0.48047,-0.16406 0.89453,-0.18359 1.2539,-0.0625 0.35547,0.11719 0.61719,0.39844 0.77735,0.83594 0.16015,0.4414 0.082,1.01953 -0.23828,1.73047 -0.71485,1.60156 -1.69532,3.51172 -2.92969,5.74609 -1.23438,2.22266 -2.57031,4.55859 -4.00781,6.99219 -1.4336,2.42187 -2.92188,4.83594 -4.47657,7.22656 -1.55859,2.39063 -3.03125,4.50781 -4.42578,6.33203 -1.39062,1.83203 -2.6875,3.29297 -3.88281,4.3711 -1.19141,1.07031 -2.10938,1.52343 -2.75,1.37109 -0.79687,-0.23828 -1.33203,-1.13672 -1.61328,-2.69141 -0.28125,-1.54687 -0.33984,-3.48828 -0.17969,-5.79297 0.16406,-2.3125 0.46094,-4.90625 0.89844,-7.76953 0.4414,-2.87109 0.95312,-5.7539 1.54687,-8.67187 0.60157,-2.91016 1.22266,-5.69141 1.85547,-8.3711 0.64063,-2.66406 1.19531,-4.99218 1.67578,-6.98828 0.15625,-0.55468 0.5,-1.79297 1.01563,-3.71093 0.51953,-1.91016 1.11328,-4.1836 1.79687,-6.8125 0.67188,-2.625 1.39453,-5.41797 2.15235,-8.36719 0.75781,-2.94531 1.44922,-5.65625 2.08984,-8.125 0.63672,-2.47266 1.15234,-4.52344 1.55469,-6.15625 0.39453,-1.63672 0.59375,-2.49219 0.59375,-2.57422 0.16015,-0.23828 0.55859,-0.13672 1.19531,0.30078 0.64063,0.4375 1.31641,1.05469 2.03125,1.84766 0.72266,0.80078 1.37891,1.69922 1.97266,2.6914 0.60156,1.00391 0.9375,1.9336 1.01562,2.8125 -0.63672,1.67578 -1.53125,4.36719 -2.6875,8.06641 -1.15625,3.70703 -2.41015,7.82812 -3.76562,12.375 -1.35547,4.54297 -2.73047,9.24219 -4.1211,14.10547 -1.39453,4.85937 -2.65625,9.30469 -3.76953,13.33203 -1.11328,4.01953 -1.96484,7.35156 -2.57031,9.98047 -0.59375,2.625 -0.8125,3.98047 -0.65234,4.0625 0.3164,0.16797 0.91406,-0.35547 1.78906,-1.55469 0.8789,-1.19141 1.92969,-2.74609 3.17187,-4.66016 1.22657,-1.91015 2.52344,-4 3.88282,-6.27343 1.34765,-2.27344 2.6289,-4.42578 3.82421,-6.45703 1.19532,-2.03125 2.23047,-3.80079 3.10547,-5.32422 0.87891,-1.50391 1.44141,-2.42188 1.67969,-2.7461"
       id="path8"
       inkscape:connector-curvature="0" />
    <path
       style="fill:#005e68;fill-opacity:1;fill-rule:nonzero;stroke:none"
       d="m 161.46875,185.84375 c -1.67188,-0.32031 -3.28516,0.45703 -4.83594,2.32812 -1.55469,1.87891 -2.90625,4.28907 -4.0664,7.23829 -1.15235,2.94531 -2.03516,6.11328 -2.62891,9.5 -0.59766,3.38671 -0.69922,6.39843 -0.30469,9.02734 2.63672,-1.91797 4.91016,-4.40234 6.81641,-7.46875 1.91406,-3.07031 3.40625,-6.09766 4.48437,-9.08594 1.07422,-2.98828 1.69141,-5.60547 1.85547,-7.83203 0.15625,-2.23047 -0.28125,-3.47266 -1.32031,-3.70703 m 18.17578,6.21484 c 0.63281,-1.11328 1.44531,-1.57031 2.44531,-1.37109 1,0.19922 1.29297,0.85547 0.89844,1.96875 -0.79687,1.67578 -1.83594,3.71484 -3.10937,6.10156 -1.27735,2.38672 -2.75,4.83594 -4.42579,7.35156 -1.66796,2.50782 -3.46093,4.98438 -5.375,7.41407 -1.91406,2.42968 -3.86718,4.58203 -5.85937,6.45312 -1.98828,1.8711 -3.96484,3.32422 -5.91406,4.35938 -1.95703,1.03125 -3.80469,1.39843 -5.5586,1.07422 -2.79297,-0.48047 -4.90234,-2.00782 -6.33984,-4.60547 -1.43359,-2.58203 -2.28906,-5.69141 -2.56641,-9.32032 -0.28515,-3.625 0,-7.46484 0.83594,-11.53515 0.83594,-4.0625 2.11328,-7.72656 3.82813,-10.9961 1.70703,-3.26953 3.82421,-5.89843 6.33203,-7.89453 2.51562,-1.99218 5.35937,-2.70703 8.54297,-2.14843 1.99609,0.32031 3.47265,1.25 4.42578,2.80468 0.96093,1.5586 1.45312,3.49219 1.49609,5.80469 0.0391,2.30469 -0.33984,4.86328 -1.13672,7.65234 -0.79687,2.78125 -1.96875,5.59766 -3.52344,8.42188 -1.55859,2.82812 -3.47265,5.55859 -5.74218,8.19141 -2.26563,2.6289 -4.80078,4.89843 -7.58985,6.8164 0.5586,0.95313 1.47657,1.55469 2.75,1.78906 1.11719,0.24219 2.45313,-0.0977 4.00782,-1.01562 1.55078,-0.91797 3.14453,-2.16797 4.78125,-3.76953 1.6289,-1.59375 3.30078,-3.44141 5.02343,-5.55469 1.70703,-2.11328 3.32032,-4.24609 4.83985,-6.39844 1.50781,-2.14453 2.86718,-4.24609 4.05859,-6.26953 1.19531,-2.03515 2.15234,-3.80859 2.875,-5.32422"
       id="path10"
       inkscape:connector-curvature="0" />
    <path
       style="fill:#005e68;fill-opacity:1;fill-rule:nonzero;stroke:none"
       d="m 198.76953,203.05469 c 0.47266,-2.38672 0.80859,-4.77735 1.01172,-7.16797 0.19141,-2.39453 0.21484,-4.53906 0.0586,-6.45313 -0.80078,0.39063 -1.45703,1.15235 -1.97656,2.26563 -0.51953,1.12109 -0.85156,2.375 -1.01172,3.76953 -0.16406,1.39453 -0.10156,2.78516 0.1836,4.17969 0.26953,1.40234 0.84765,2.53515 1.73437,3.40625 m 15.89453,-10.75782 c 0.23828,-0.55078 0.59766,-0.93359 1.07031,-1.13671 0.48047,-0.19141 0.92188,-0.21485 1.31641,-0.0586 0.39844,0.16406 0.67969,0.46875 0.83984,0.90235 0.15625,0.4375 0.0781,1.01562 -0.24218,1.73046 -2.22657,5.02344 -4.65625,8.75 -7.28516,11.17579 -2.63281,2.42968 -5.14062,3.84765 -7.53516,4.24218 h -0.24218 c -0.875,2.38672 -1.87891,4.64453 -2.98828,6.75391 -1.11719,2.11328 -2.32813,3.92578 -3.64454,5.44141 -1.3125,1.50781 -2.72656,2.67187 -4.24218,3.46484 -1.51172,0.80078 -3.06641,1.07812 -4.66797,0.83594 -2.14063,-0.23828 -3.9375,-1.23438 -5.3711,-2.98828 -1.43359,-1.75391 -2.53125,-3.94141 -3.28515,-6.57813 -0.76172,-2.625 -1.17578,-5.57031 -1.25781,-8.83984 -0.0781,-3.26172 0.12109,-6.58985 0.59765,-9.98438 0.48047,-3.38281 1.23438,-6.67187 2.26953,-9.86328 1.03516,-3.1875 2.3125,-6.01953 3.82813,-8.48437 0.32031,0.0781 0.73437,0.35546 1.2539,0.83593 0.51954,0.47657 1.03516,1.07813 1.55079,1.78907 0.51953,0.72265 0.95703,1.48046 1.3125,2.27343 0.36328,0.79688 0.53906,1.55469 0.53906,2.26953 -0.95313,1.44141 -1.8125,3.27344 -2.57031,5.50391 -0.75,2.23828 -1.3711,4.58594 -1.84766,7.05078 -0.48047,2.47266 -0.79297,4.96094 -0.95703,7.47656 -0.16016,2.50782 -0.0977,4.79688 0.17969,6.8711 0.28125,2.07031 0.8164,3.80859 1.61718,5.19922 0.79688,1.39453 1.91016,2.21093 3.33985,2.45312 0.95703,0.15625 1.875,-0.0625 2.75,-0.65625 0.875,-0.60156 1.6914,-1.45703 2.45703,-2.57422 0.75,-1.11718 1.46875,-2.46875 2.14453,-4.0664 0.67969,-1.58985 1.29297,-3.30469 1.85547,-5.13672 -2.07813,-1.19531 -3.58594,-3.10938 -4.54297,-5.74219 -0.95703,-2.62109 -1.375,-5.375 -1.25781,-8.24219 0.12109,-2.86718 0.79687,-5.51953 2.03125,-7.95703 1.23828,-2.42969 3.05078,-3.96484 5.4414,-4.60156 0.40235,-0.0781 0.89844,-0.0977 1.4961,-0.0547 0.59765,0.0352 1.21484,0.25391 1.85156,0.65625 0.63281,0.39844 1.23047,1.01563 1.79297,1.85156 0.5625,0.83594 0.96094,2.01563 1.1914,3.51954 0.32813,2.55859 0.33985,5.26953 0.0625,8.14062 -0.27734,2.86328 -0.77343,5.69141 -1.48828,8.48438 1.59375,-0.39454 3.32032,-1.53125 5.19532,-3.40625 1.875,-1.8711 3.6875,-4.72266 5.4414,-8.55079"
       id="path12"
       inkscape:connector-curvature="0" />
    <path
       style="fill:#005e68;fill-opacity:1;fill-rule:nonzero;stroke:none"
       d="m 227.80859,185.84375 c -1.66797,-0.32031 -3.28515,0.45703 -4.83593,2.32812 -1.55469,1.87891 -2.91407,4.28907 -4.06641,7.23829 -1.15625,2.94531 -2.03516,6.11328 -2.63281,9.5 -0.59375,3.38671 -0.69532,6.39843 -0.29297,9.02734 2.625,-1.91797 4.89453,-4.40234 6.80469,-7.46875 1.91796,-3.07031 3.41015,-6.09766 4.49218,-9.08594 1.07422,-2.98828 1.6836,-5.60547 1.84766,-7.83203 0.16016,-2.23047 -0.27734,-3.47266 -1.31641,-3.70703 m 18.16407,6.21484 c 0.64062,-1.11328 1.46093,-1.57031 2.46093,-1.37109 0.98828,0.19922 1.28907,0.85547 0.89844,1.96875 -0.80078,1.67578 -1.83594,3.71484 -3.11719,6.10156 -1.27343,2.38672 -2.75,4.83594 -4.41797,7.35156 -1.67578,2.50782 -3.47265,4.98438 -5.38281,7.41407 -1.91015,2.42968 -3.86328,4.58203 -5.85547,6.45312 -1.98828,1.8711 -3.96484,3.32422 -5.91797,4.35938 -1.95312,1.03125 -3.80468,1.39843 -5.55468,1.07422 -2.79688,-0.48047 -4.90235,-2.00782 -6.33985,-4.60547 -1.42968,-2.58203 -2.28906,-5.69141 -2.5664,-9.32032 -0.27735,-3.625 0,-7.46484 0.83593,-11.53515 0.83204,-4.0625 2.11329,-7.72656 3.82813,-10.9961 1.71094,-3.26953 3.82422,-5.89843 6.33203,-7.89453 2.51172,-1.99218 5.35938,-2.70703 8.54688,-2.14843 1.98828,0.32031 3.46875,1.25 4.42187,2.80468 0.96094,1.5586 1.45313,3.49219 1.5,5.80469 0.0352,2.30469 -0.35156,4.86328 -1.14062,7.65234 -0.80079,2.78125 -1.97266,5.59766 -3.52344,8.42188 -1.55469,2.82812 -3.46875,5.55859 -5.7461,8.19141 -2.26171,2.6289 -4.79687,4.89843 -7.58593,6.8164 0.55859,0.95313 1.46875,1.55469 2.74609,1.78906 1.12109,0.24219 2.46094,-0.0977 4.01563,-1.01562 1.54296,-0.91797 3.14062,-2.16797 4.77734,-3.76953 1.63281,-1.59375 3.30469,-3.44141 5.01953,-5.55469 1.71094,-2.11328 3.32031,-4.24609 4.84375,-6.39844 1.50781,-2.14453 2.86328,-4.24609 4.05859,-6.26953 1.19922,-2.03515 2.15235,-3.80859 2.86329,-5.32422"
       id="path14"
       inkscape:connector-curvature="0" />
    <path
       style="fill:#005e68;fill-opacity:1;fill-rule:nonzero;stroke:none"
       d="m 282.67969,192.41797 c 0.40234,-0.47656 0.85937,-0.77344 1.36718,-0.89063 0.52344,-0.12109 0.96094,-0.10156 1.32032,0.0547 0.35937,0.16406 0.59765,0.46484 0.71875,0.89844 0.12109,0.4414 -0.0234,1.01172 -0.41797,1.73437 -0.88281,1.51563 -2,3.38282 -3.34766,5.6211 -1.36328,2.23047 -2.83203,4.55859 -4.42187,6.98828 -1.59766,2.43359 -3.26953,4.83984 -5.01953,7.23047 -1.75782,2.39453 -3.42579,4.50781 -5.01954,6.33593 -1.60156,1.83594 -3.05078,3.23047 -4.36718,4.17969 -1.31641,0.96094 -2.375,1.23828 -3.16797,0.83985 -1.19141,-0.55469 -1.8125,-1.86719 -1.85938,-3.94532 -0.0351,-2.07031 0.2461,-4.5 0.84375,-7.28125 0.60157,-2.79687 1.37891,-5.75 2.32813,-8.85156 0.95703,-3.11328 1.83594,-6.01953 2.63672,-8.73047 0.79297,-2.70703 1.34765,-4.99609 1.66797,-6.875 0.3164,-1.87109 0.16015,-2.96875 -0.47657,-3.28515 -0.8789,-0.39844 -2.39062,0.25781 -4.54297,1.97265 -2.15234,1.71485 -4.4375,4.20313 -6.8789,7.47266 -2.42188,3.26562 -4.77344,7.19531 -7.04297,11.77344 -2.27734,4.58593 -3.92969,9.50781 -4.96875,14.76953 -0.16016,0.63672 -0.27734,1.17187 -0.35156,1.60937 -0.0781,0.4375 -0.1211,0.77344 -0.1211,1.01953 -0.71484,0.15625 -1.41406,0.0937 -2.09765,-0.1875 -0.67188,-0.27343 -1.09375,-0.60937 -1.25782,-1.01562 -0.0742,-1.27344 0.0664,-3.16406 0.42188,-5.67578 0.35937,-2.50782 0.80078,-5.32032 1.31641,-8.42969 0.51562,-3.10547 1.14062,-6.33594 1.85546,-9.6875 0.71485,-3.34375 1.4336,-6.50391 2.14844,-9.49609 0.71485,-2.99219 1.39453,-5.64063 2.03125,-7.95313 0.63672,-2.3125 1.19141,-3.98047 1.67578,-5.01953 0.39844,0 0.87891,0.23437 1.4336,0.71875 0.55859,0.47656 1.08984,1.07422 1.61328,1.78906 0.51953,0.72266 0.97656,1.47656 1.375,2.27344 0.39453,0.79687 0.63672,1.47266 0.71875,2.03125 -0.5586,1.59766 -1.07422,3.21094 -1.5586,4.84375 -0.46875,1.63672 -0.94921,3.25 -1.42578,4.84375 1.51172,-2.39453 3.12891,-4.625 4.84375,-6.69922 1.70703,-2.06641 3.46094,-3.78516 5.25782,-5.13672 1.78906,-1.35937 3.5625,-2.29297 5.3125,-2.8125 1.7539,-0.51562 3.46875,-0.45703 5.14062,0.17969 1.82813,0.71484 2.87109,2.12891 3.11328,4.24219 0.23828,2.11328 0.0391,4.58593 -0.59765,7.42187 -0.64063,2.82422 -1.55469,5.8125 -2.75782,8.96094 -1.1875,3.14844 -2.34375,6.07422 -3.46093,8.78125 -1.1211,2.71484 -2.00782,5 -2.69141,6.875 -0.67578,1.87891 -0.81641,2.96875 -0.41406,3.28906 0.23437,0.15625 0.83203,-0.33984 1.78906,-1.49219 0.95312,-1.15234 2.10937,-2.67578 3.46875,-4.55078 1.35937,-1.87109 2.78516,-3.93359 4.30078,-6.20703 1.51563,-2.27344 2.94922,-4.42578 4.30078,-6.44922 1.35938,-2.04297 2.51563,-3.8164 3.47266,-5.32422 0.95312,-1.51171 1.55078,-2.42968 1.79297,-2.7539"
       id="path16"
       inkscape:connector-curvature="0" />
    <path
       style="fill:#545451;fill-opacity:1;fill-rule:nonzero;stroke:none"
       d="m 112.82813,249.44922 c 0,0 2.23437,-0.0508 6.14062,-0.14063 3.90234,-0.0586 9.48437,-0.19922 16.17969,-0.26562 6.69531,-0.0586 14.50781,-0.19531 22.8789,-0.22266 8.36719,-0.0273 17.29688,-0.0625 26.22266,-0.0977 8.92969,0.0352 17.85547,0.0664 26.22656,0.0977 8.36719,0.0234 16.1836,0.16016 22.87891,0.22266 6.69531,0.0625 12.27344,0.20703 16.17969,0.26562 3.90625,0.0898 6.13671,0.14063 6.13671,0.14063 0,0 -2.23046,0.0508 -6.13671,0.14062 -3.90625,0.0586 -9.48438,0.20313 -16.17969,0.26563 -6.69531,0.0625 -14.51172,0.19922 -22.87891,0.22265 -8.37109,0.0312 -17.29687,0.0625 -26.22656,0.0977 -8.92578,-0.0352 -17.85547,-0.0703 -26.22266,-0.0977 -8.37109,-0.0273 -16.18359,-0.16406 -22.8789,-0.22265 -6.69532,-0.0664 -12.27735,-0.20703 -16.17969,-0.26563 -3.90625,-0.0898 -6.14062,-0.14062 -6.14062,-0.14062"
       id="path18"
       inkscape:connector-curvature="0" />
    <path
       style="fill:#545451;fill-opacity:1;fill-rule:nonzero;stroke:none"
       d="m 132.59766,254.55078 c 0,0 1.61328,-0.0508 4.4375,-0.14062 2.82812,-0.0586 6.86328,-0.19922 11.70312,-0.26563 4.84375,-0.0586 10.49219,-0.19531 16.54688,-0.22266 6.05468,-0.0273 12.51171,-0.0625 18.96875,-0.0977 6.45312,0.0352 12.91015,0.0664 18.96484,0.0977 6.05078,0.0234 11.70312,0.16016 16.54687,0.22266 4.83985,0.0625 8.875,0.20703 11.69922,0.26563 2.82813,0.0898 4.44141,0.14062 4.44141,0.14062 0,0 -1.61328,0.0508 -4.44141,0.14063 -2.82422,0.0586 -6.85937,0.20312 -11.69922,0.26562 -4.84375,0.0625 -10.49609,0.19922 -16.54687,0.22266 -6.05469,0.0312 -12.51172,0.0625 -18.96484,0.0977 -6.45704,-0.0352 -12.91407,-0.0703 -18.96875,-0.0977 -6.05469,-0.0273 -11.70313,-0.16407 -16.54688,-0.22266 -4.83984,-0.0664 -8.875,-0.20703 -11.70312,-0.26562 -2.82422,-0.0898 -4.4375,-0.14063 -4.4375,-0.14063"
       id="path20"
       inkscape:connector-curvature="0" />
    <path
       style="fill:#545454;fill-opacity:1;fill-rule:nonzero;stroke:none"
       d="m 132.59766,124.60547 20.04687,-0.44922 20.04297,-0.14062 v 1.33593 c 0,0 -14.98438,-0.125 -20.04297,-0.21875 -4.96484,-0.0898 -20.04687,-0.52734 -20.04687,-0.52734"
       id="path22"
       inkscape:connector-curvature="0" />
    <path
       style="fill:#545454;fill-opacity:1;fill-rule:nonzero;stroke:none"
       d="m 235.90625,124.60547 -20.04688,-0.44922 -20.04296,-0.14062 v 1.33593 c 0,0 14.98437,-0.125 20.04296,-0.21875 4.96485,-0.0898 20.04688,-0.52734 20.04688,-0.52734"
       id="path24"
       inkscape:connector-curvature="0" />
    <path
       style="fill:#545454;fill-opacity:1;fill-rule:nonzero;stroke:none"
       d="m 98.324219,108.30078 0.589843,1.91797 4.355468,3.94141 -1.3125,1.44531 -12.964842,-11.74609 1.308593,-1.44532 6.261719,5.67188 -3.140625,-9.11719 1.328125,-1.464844 2.9375,8.632814 10.12891,3.00391 -1.34375,1.48437 z m 0,0"
       id="path26"
       inkscape:connector-curvature="0" />
    <path
       style="fill:#545454;fill-opacity:1;fill-rule:nonzero;stroke:none"
       d="m 110.08594,99.976562 2.98047,-2.515624 -8.02344,-6.441407 z m 0.89062,1.441408 1.75782,3.12891 -1.375,1.16406 -8.73047,-15.535159 2.16015,-1.824219 13.84766,11.210938 -1.48828,1.26172 -2.78906,-2.26172 z m 0,0"
       id="path28"
       inkscape:connector-curvature="0" />
    <path
       style="fill:#545454;fill-opacity:1;fill-rule:nonzero;stroke:none"
       d="m 123.07031,85.246094 0.96485,1.492187 -3.37891,2.1875 4.12109,6.355469 -1.63671,1.0625 -9.51954,-14.6875 5.83594,-3.777344 0.96485,1.488282 -4.19922,2.71875 3.46875,5.351562 z m 0,0"
       id="path30"
       inkscape:connector-curvature="0" />
    <path
       style="fill:#545454;fill-opacity:1;fill-rule:nonzero;stroke:none"
       d="m 135.10156,78.792969 0.78516,1.59375 -3.61328,1.777343 3.34375,6.792969 -1.75,0.863281 -7.72266,-15.703124 6.23828,-3.066407 0.78125,1.59375 -4.48437,2.203125 2.8125,5.722656 z m 0,0"
       id="path32"
       inkscape:connector-curvature="0" />
    <path
       style="fill:#545454;fill-opacity:1;fill-rule:nonzero;stroke:none"
       d="m 147.91797,73.351562 0.57812,1.652344 -4.03515,1.410156 2.05078,5.878907 4.95703,-1.730469 0.58594,1.675781 -6.80078,2.371094 -5.76563,-16.523437 6.79688,-2.371094 0.58593,1.675781 -4.95703,1.730469 1.96875,5.640625 z m 0,0"
       id="path34"
       inkscape:connector-curvature="0" />
    <path
       style="fill:#545454;fill-opacity:1;fill-rule:nonzero;stroke:none"
       d="m 161.67969,69.828125 0.37109,1.710937 -4.17969,0.902344 1.31641,6.082032 5.12891,-1.109376 0.375,1.734376 -7.03516,1.523437 -3.69531,-17.101563 7.03515,-1.519531 0.375,1.734375 -5.13281,1.109375 1.26563,5.835938 z m 0,0"
       id="path36"
       inkscape:connector-curvature="0" />
    <path
       style="fill:#545454;fill-opacity:1;fill-rule:nonzero;stroke:none"
       d="m 182.94141,69.273438 c -1.44922,0.07422 -2.15625,0.984374 -2.12891,2.683593 l 0.0273,1.601563 c 0.0234,1.546875 0.71094,2.386718 2.0625,2.363281 1.125,-0.01563 1.91407,-0.679687 1.94141,-2.03125 l -0.0781,-4.648437 z m -0.0469,-7.476563 c -1.47656,0.02734 -2.23828,0.8125 -2.21094,2.511719 l 0.0156,0.875 c 0.0234,1.5 0.78906,2.3125 2.0625,2.34375 l 1.97656,-0.03516 -0.0312,-1.949219 1.92188,-0.03125 0.0352,1.949219 0.84766,-0.01172 0.0312,1.746093 -0.85156,0.01563 0.0977,6.023437 c 0.0156,0.875 0.0508,1.550781 0.41406,2.21875 l -1.97656,0.03125 c -0.20703,-0.421875 -0.3125,-0.769531 -0.34765,-1.519531 -0.48438,1.132812 -1.44922,1.726562 -2.72266,1.746094 -2.17578,0.03516 -3.19922,-1.496094 -3.23828,-3.972657 l -0.0312,-1.699219 c -0.0273,-1.722656 0.57422,-3.109374 2.01562,-3.683593 -1.43359,-0.476563 -2.10547,-1.789063 -2.13281,-3.539063 l -0.008,-0.398437 c -0.0469,-2.777344 1.27734,-4.347657 4.05469,-4.394531 l 2.82421,-0.04688 0.0273,1.777344 z m 0,0"
       id="path38"
       inkscape:connector-curvature="0" />
    <path
       style="fill:#545454;fill-opacity:1;fill-rule:nonzero;stroke:none"
       d="m 205.35547,71.953125 -1.34766,1.488281 -1.16015,5.761719 -1.91016,-0.386719 3.46094,-17.152344 1.91015,0.382813 -1.67187,8.285156 6.23047,-7.363281 1.93359,0.390625 -5.91406,6.941406 2.60156,10.242188 -1.96094,-0.398438 z m 0,0"
       id="path40"
       inkscape:connector-curvature="0" />
    <path
       style="fill:#545454;fill-opacity:1;fill-rule:nonzero;stroke:none"
       d="m 217.74609,78.691406 c -0.51172,1.488282 -0.23047,2.589844 1.1211,3.050782 1.32422,0.457031 2.22265,-0.238282 2.73437,-1.730469 l 4.33203,-12.652344 1.72657,0.589844 -4.30079,12.558593 c -0.85937,2.507813 -2.59375,3.789063 -5.14843,2.914063 -2.53125,-0.867187 -3.11328,-2.941406 -2.25391,-5.449219 l 4.30078,-12.558594 1.82031,0.621094 z m 0,0"
       id="path42"
       inkscape:connector-curvature="0" />
    <path
       style="fill:#545454;fill-opacity:1;fill-rule:nonzero;stroke:none"
       d="m 240.22266,78.277344 -0.69922,1.410156 -1.65625,-0.816406 0.73828,-1.503906 c 0.69531,-1.410157 0.55469,-2.539063 -0.72266,-3.171876 -1.25781,-0.617187 -2.26172,-0.05078 -2.95703,1.363282 l -4.08594,8.296875 c -0.69531,1.414062 -0.53125,2.554687 0.72266,3.171875 1.27734,0.628906 2.25781,0.05469 2.95703,-1.359375 l 1.00391,-2.042969 1.66015,0.820312 -0.96093,1.949219 c -1.17188,2.378907 -3.06641,3.394531 -5.48829,2.203125 -2.40234,-1.183594 -2.75,-3.304687 -1.57812,-5.683594 l 4,-8.117187 c 1.17187,-2.378906 3.06641,-3.394531 5.46484,-2.214844 2.42188,1.195313 2.76953,3.316407 1.60157,5.695313"
       id="path44"
       inkscape:connector-curvature="0" />
    <path
       style="fill:#545454;fill-opacity:1;fill-rule:nonzero;stroke:none"
       d="m 245.3125,87.566406 -4.36328,6.554688 -1.6211,-1.078125 9.69532,-14.570313 1.625,1.082032 -4.36328,6.554687 3.57812,2.382813 4.36328,-6.554688 1.625,1.078125 -9.69922,14.570313 -1.62109,-1.082032 4.36328,-6.554687 z m 0,0"
       id="path46"
       inkscape:connector-curvature="0" />
    <path
       style="fill:#545454;fill-opacity:1;fill-rule:nonzero;stroke:none"
       d="m 261.98437,97.957031 -1.14843,1.324219 -3.23047,-2.800781 -4.07422,4.703121 3.96484,3.4375 -1.16015,1.33985 -5.44141,-4.71485 11.46094,-13.222652 5.4414,4.714843 -1.16406,1.34375 -3.96875,-3.4375 -3.91015,4.511719 z m 0,0"
       id="path48"
       inkscape:connector-curvature="0" />
    <path
       style="fill:#545454;fill-opacity:1;fill-rule:nonzero;stroke:none"
       d="m 261.63672,111.30078 -1.16797,-1.30469 13.04297,-11.664059 1.64844,1.843749 -6.72657,11.44922 9.42578,-8.42969 1.15235,1.28516 -13.04297,11.66406 -1.34766,-1.50781 7.5625,-12.76563 z m 0,0"
       id="path50"
       inkscape:connector-curvature="0" />
    <path
       style="fill:#545454;fill-opacity:1;fill-rule:nonzero;stroke:none"
       d="m 86.894531,114.62891 c 0,0 -1.222656,2.04297 -3.355469,5.61718 -0.519531,0.90235 -1.179687,1.85157 -1.738281,2.97266 -0.566406,1.11719 -1.179687,2.32422 -1.835937,3.61328 -0.652344,1.28906 -1.347656,2.66016 -2.078125,4.10547 -0.636719,1.49219 -1.304688,3.05859 -2,4.69531 -0.347657,0.82031 -0.707031,1.65235 -1.066407,2.50391 -0.183593,0.42578 -0.367187,0.85547 -0.550781,1.28515 -0.152343,0.44532 -0.308593,0.89454 -0.464843,1.35157 -0.621094,1.80859 -1.261719,3.68359 -1.921876,5.60937 -0.722656,1.90625 -1.171874,3.95313 -1.726562,6.01953 -0.269531,1.03125 -0.546875,2.07422 -0.824219,3.12891 -0.28125,1.05078 -0.589843,2.10937 -0.761719,3.20703 -0.410156,2.17969 -0.828124,4.39453 -1.253906,6.64063 -0.101562,0.5625 -0.222656,1.12109 -0.308594,1.6875 l -0.1875,1.71875 c -0.128906,1.14453 -0.257812,2.29687 -0.382812,3.45703 -0.132812,1.15625 -0.261719,2.3164 -0.390625,3.48047 -0.08203,0.58203 -0.113281,1.16796 -0.121094,1.75781 l -0.0625,1.76562 c -0.08203,2.35157 -0.164062,4.71485 -0.246093,7.08203 0.08203,2.36719 0.164062,4.73438 0.246093,7.09375 0.06641,1.17579 0.02344,2.375 0.179688,3.53125 0.128906,1.16407 0.257812,2.32032 0.386719,3.47266 0.128906,1.15625 0.257812,2.30469 0.382812,3.44922 L 67,205.58594 c 0.07813,0.57031 0.207031,1.1289 0.304688,1.6914 0.421874,2.24219 0.839843,4.46094 1.25,6.64063 0.171874,1.09765 0.476562,2.15625 0.761718,3.20703 0.277344,1.05469 0.550782,2.09766 0.824219,3.12891 0.554687,2.0664 1,4.11328 1.722656,6.01953 0.65625,1.92578 1.296875,3.80078 1.917969,5.61328 0.15625,0.45312 0.308594,0.90234 0.460938,1.34765 0.183593,0.4336 0.367187,0.86329 0.546874,1.28907 0.363282,0.85156 0.71875,1.68359 1.070313,2.5039 0.695313,1.63672 1.363281,3.20313 1.996094,4.69532 0.730469,1.44921 1.425781,2.82031 2.078125,4.10937 0.65625,1.29297 1.269531,2.5 1.835937,3.61719 0.554688,1.12109 1.214844,2.07031 1.730469,2.97265 2.132812,3.57422 3.351562,5.61329 3.351562,5.61329 0,0 -1.304687,-1.98829 -3.59375,-5.46875 -0.546874,-0.88672 -1.238281,-1.81641 -1.835937,-2.92188 -0.605469,-1.09766 -1.261719,-2.28906 -1.964844,-3.55859 -0.699219,-1.27735 -1.445312,-2.62891 -2.230469,-4.0586 -0.671874,-1.48437 -1.378906,-3.04687 -2.117187,-4.67968 -0.367187,-0.8125 -0.742187,-1.64454 -1.125,-2.4961 -0.195313,-0.42578 -0.386719,-0.85156 -0.582031,-1.28515 -0.164063,-0.44532 -0.328125,-0.89454 -0.492188,-1.34766 -0.664062,-1.8125 -1.347656,-3.6875 -2.050781,-5.61719 -0.769531,-1.90625 -1.261719,-3.96094 -1.867187,-6.02734 -0.289063,-1.03906 -0.582032,-2.08985 -0.875,-3.15235 -0.296876,-1.05859 -0.609376,-2.125 -0.789063,-3.23437 -0.429687,-2.19922 -0.867187,-4.43359 -1.308594,-6.69531 -0.105469,-0.57032 -0.238281,-1.13282 -0.320312,-1.70703 l -0.203125,-1.73829 c -0.140625,-1.16015 -0.277344,-2.32812 -0.414063,-3.5 -0.136719,-1.17187 -0.277343,-2.34765 -0.417969,-3.52734 -0.164062,-1.18359 -0.128906,-2.35937 -0.203124,-3.54687 -0.09766,-2.375 -0.191407,-4.76172 -0.292969,-7.14454 0.101562,-2.39062 0.199219,-4.78125 0.296875,-7.16015 l 0.07422,-1.78516 c 0.01563,-0.59375 0.05078,-1.18359 0.136719,-1.76953 0.140625,-1.17969 0.277344,-2.35156 0.417969,-3.52344 0.136719,-1.16797 0.273438,-2.33203 0.410156,-3.48828 l 0.207032,-1.73047 c 0.08594,-0.57422 0.214843,-1.14062 0.320312,-1.70703 0.445312,-2.26172 0.882812,-4.5 1.3125,-6.69922 0.183594,-1.10547 0.5,-2.17187 0.792969,-3.23047 0.296875,-1.0625 0.589843,-2.11328 0.878906,-3.14843 0.601563,-2.07422 1.101563,-4.125 1.871094,-6.03125 0.703125,-1.92969 1.386719,-3.80469 2.050781,-5.61719 0.167969,-0.45313 0.332031,-0.89844 0.496094,-1.34375 0.195312,-0.43359 0.386718,-0.86328 0.578125,-1.28516 0.386719,-0.85156 0.761719,-1.68359 1.128906,-2.5 0.738281,-1.6289 1.445313,-3.1875 2.121094,-4.67578 0.785156,-1.42969 1.53125,-2.78515 2.234375,-4.05859 0.703125,-1.27344 1.359375,-2.46094 1.964844,-3.5625 0.597656,-1.10547 1.289062,-2.03125 1.839843,-2.91797 2.285157,-3.47656 3.59375,-5.46484 3.59375,-5.46484"
       id="path52"
       inkscape:connector-curvature="0" />
    <path
       style="fill:#545454;fill-opacity:1;fill-rule:nonzero;stroke:none"
       d="m 282.89062,114.62891 c 0,0 1.3086,1.98828 3.59375,5.46484 0.55079,0.88672 1.24219,1.8125 1.83985,2.91797 0.60547,1.10156 1.26172,2.28906 1.96484,3.5625 0.70313,1.27344 1.44922,2.6289 2.23828,4.05859 0.67188,1.48828 1.37891,3.04688 2.11719,4.67578 0.36719,0.81641 0.74219,1.64844 1.12891,2.4961 0.1914,0.42578 0.38281,0.85547 0.57812,1.28515 0.16406,0.44532 0.32813,0.89453 0.4961,1.34766 0.66406,1.8125 1.34765,3.6875 2.05468,5.61719 0.76563,1.90625 1.26563,3.95703 1.86719,6.03125 0.28906,1.03515 0.58594,2.08593 0.87891,3.14843 0.29297,1.0586 0.61328,2.125 0.79297,3.23047 0.42968,2.19922 0.87109,4.4375 1.3125,6.69922 0.10546,0.56641 0.23437,1.13281 0.32421,1.70313 l 0.20313,1.73437 c 0.13672,1.15625 0.27344,2.32031 0.41406,3.48828 0.13672,1.17188 0.27344,2.34375 0.41406,3.51953 0.0859,0.58985 0.1211,1.17969 0.13672,1.77344 l 0.0742,1.78516 c 0.0977,2.3789 0.19922,4.76953 0.29688,7.16015 -0.0977,2.38282 -0.19532,4.76954 -0.29297,7.14454 -0.0742,1.1875 -0.0391,2.36328 -0.20313,3.54296 -0.14062,1.1836 -0.27734,2.35938 -0.41797,3.53125 -0.13671,1.17188 -0.27343,2.33985 -0.41015,3.5 l -0.20703,1.73829 c -0.0781,0.57421 -0.21485,1.13671 -0.31641,1.70312 -0.44141,2.26563 -0.88281,4.5 -1.3125,6.69922 -0.17969,1.10937 -0.49219,2.17578 -0.78906,3.23437 -0.29297,1.0625 -0.58594,2.11329 -0.875,3.14844 -0.60156,2.07031 -1.09375,4.125 -1.86719,6.03125 -0.70312,1.92969 -1.38672,3.80469 -2.04687,5.61719 -0.16797,0.45312 -0.33204,0.90234 -0.4961,1.34766 -0.19531,0.43359 -0.38672,0.85937 -0.57812,1.28515 -0.38282,0.85156 -0.76172,1.6836 -1.12891,2.4961 -0.73437,1.63281 -1.44141,3.19531 -2.11719,4.67968 -0.78515,1.42969 -1.52734,2.78125 -2.23047,4.0586 -0.69921,1.26953 -1.35546,2.46093 -1.96093,3.55859 -0.59766,1.10547 -1.29297,2.03516 -1.83985,2.92188 -2.28515,3.48046 -3.59375,5.46875 -3.59375,5.46875 0,0 1.21875,-2.03907 3.35157,-5.61329 0.51562,-0.90234 1.17578,-1.85156 1.73437,-2.97265 0.5625,-1.11719 1.17969,-2.32422 1.83203,-3.61719 0.65235,-1.28906 1.34766,-2.66016 2.07813,-4.10937 0.63672,-1.49219 1.30468,-3.0586 1.99609,-4.69922 0.35156,-0.81641 0.70703,-1.65235 1.07031,-2.5 0.17969,-0.42578 0.36328,-0.85547 0.54688,-1.28907 0.15625,-0.44531 0.30859,-0.89453 0.46484,-1.34765 0.61719,-1.8125 1.25781,-3.6875 1.91406,-5.61328 0.72657,-1.90625 1.16797,-3.95703 1.72266,-6.01953 0.27344,-1.03125 0.55078,-2.07422 0.82813,-3.12891 0.28515,-1.05078 0.58593,-2.10938 0.75781,-3.20703 0.41015,-2.17969 0.82812,-4.39844 1.25,-6.64063 0.10156,-0.5625 0.23047,-1.12109 0.30469,-1.6914 l 0.1875,-1.71094 c 0.1289,-1.14453 0.25781,-2.29297 0.38671,-3.44922 0.125,-1.15234 0.25391,-2.30859 0.38672,-3.47266 0.15235,-1.15625 0.11328,-2.35546 0.17578,-3.53125 0.082,-2.35937 0.16407,-4.72656 0.2461,-7.09375 -0.082,-2.36718 -0.16406,-4.73046 -0.2461,-7.08203 l -0.0586,-1.76562 c -0.0117,-0.58985 -0.043,-1.17578 -0.125,-1.75781 -0.12891,-1.16407 -0.25781,-2.32422 -0.38672,-3.48047 -0.1289,-1.16016 -0.25781,-2.3125 -0.38672,-3.46094 l -0.1875,-1.71484 c -0.0859,-0.56641 -0.20703,-1.125 -0.30859,-1.6875 -0.42188,-2.2461 -0.83984,-4.46094 -1.25391,-6.64063 -0.17187,-1.09766 -0.48047,-2.15625 -0.76172,-3.20703 -0.27734,-1.05469 -0.55078,-2.09766 -0.82421,-3.13281 -0.55079,-2.0625 -1.00391,-4.10938 -1.72657,-6.01563 -0.66015,-1.92578 -1.30078,-3.80078 -1.92187,-5.61328 -0.15625,-0.45312 -0.3125,-0.90234 -0.46485,-1.34766 -0.18359,-0.42968 -0.36718,-0.85937 -0.55078,-1.28515 -0.35937,-0.85156 -0.71875,-1.6836 -1.0664,-2.50391 -0.69532,-1.63672 -1.36328,-3.20312 -1.9961,-4.69531 -0.73437,-1.44531 -1.42968,-2.81641 -2.08203,-4.10547 -0.65625,-1.28906 -1.26953,-2.49609 -1.83594,-3.61328 -0.55859,-1.12109 -1.21875,-2.07031 -1.73828,-2.97266 -2.13281,-3.57421 -3.35547,-5.61718 -3.35547,-5.61718"
       id="path54"
       inkscape:connector-curvature="0" />
    <path
       style="fill:#545454;fill-opacity:1;fill-rule:nonzero;stroke:none"
       d="m 128.73047,285.73047 -1.72266,1.02734 -2.79687,5.16797 -1.71485,-0.92969 8.33203,-15.39062 1.71485,0.92969 -4.02344,7.42968 8.11328,-5.21484 1.73438,0.9375 -7.6875,4.91016 -0.51172,10.55468 -1.75781,-0.95312 z m 0,0"
       id="path56"
       inkscape:connector-curvature="0" />
    <path
       style="fill:#545454;fill-opacity:1;fill-rule:nonzero;stroke:none"
       d="m 141.10547,294.25781 3.65234,1.375 1.71875,-10.14844 z m -0.82422,1.47656 -1.87891,3.0586 -1.68359,-0.63281 9.32031,-15.19141 2.64453,0.99609 -3.05078,17.5586 -1.82422,-0.6875 0.61328,-3.53907 z m 0,0"
       id="path58"
       inkscape:connector-curvature="0" />
    <path
       style="fill:#545454;fill-opacity:1;fill-rule:nonzero;stroke:none"
       d="m 160.9375,295.94922 -0.41016,1.73047 -3.91406,-0.9336 -1.75391,7.3711 -1.89843,-0.45313 4.04687,-17.02344 6.76563,1.60547 -0.41407,1.72657 -4.86328,-1.15625 -1.47265,6.20312 z m 0,0"
       id="path60"
       inkscape:connector-curvature="0" />
    <path
       style="fill:#545454;fill-opacity:1;fill-rule:nonzero;stroke:none"
       d="m 174.22656,297.95703 -0.20312,1.76172 -4,-0.46094 -0.8711,7.52735 -1.9375,-0.22266 2.00782,-17.39063 6.90625,0.79688 -0.20313,1.76562 -4.96875,-0.57421 -0.73047,6.33593 z m 0,0"
       id="path62"
       inkscape:connector-curvature="0" />
    <path
       style="fill:#545454;fill-opacity:1;fill-rule:nonzero;stroke:none"
       d="m 187.72266,297.96484 0.0273,1.7461 -4.27344,0.0703 0.10156,6.22656 5.25,-0.0898 0.0273,1.77734 -7.19531,0.11719 -0.28907,-17.49609 7.19532,-0.11719 0.0312,1.77344 -5.25,0.0859 0.10156,5.97657 z m 0,0"
       id="path64"
       inkscape:connector-curvature="0" />
    <path
       style="fill:#545454;fill-opacity:1;fill-rule:nonzero;stroke:none"
       d="m 201.71875,296.78516 0.21484,1.73437 -4.24218,0.53125 0.77343,6.17969 5.20703,-0.65235 0.22266,1.76172 -7.14844,0.89063 -2.16797,-17.36719 7.14844,-0.89062 0.21875,1.76171 -5.21094,0.64844 0.74219,5.92969 z m 0,0"
       id="path66"
       inkscape:connector-curvature="0" />
    <path
       style="fill:#545454;fill-opacity:1;fill-rule:nonzero;stroke:none"
       d="m 215.12109,302.16406 c 1.38282,-0.35547 1.82422,-1.24219 1.42188,-2.8164 l -0.38281,-1.5 c -0.48438,-1.89063 -1.39454,-2.32813 -3.01954,-1.91407 l -1.64453,0.42188 1.61719,6.32031 z m -2.61328,-7.89844 c 1.50391,-0.38281 2.15235,-1.0664 1.69922,-2.83593 l -0.25391,-0.99219 c -0.38281,-1.5 -1.07812,-2.09766 -2.43359,-1.75 l -1.86328,0.47656 1.39844,5.47266 z m -1.3789,-7.30859 c 2.64062,-0.67578 4.0039,0.31641 4.64062,2.8125 l 0.20313,0.79688 c 0.46093,1.79296 0.23828,3.03515 -1.1211,3.875 1.76172,0.0391 2.72656,1.18359 3.20313,3.05078 l 0.36718,1.42578 c 0.64844,2.54297 -0.21875,4.28906 -2.85937,4.96484 l -3.89844,0.9961 -4.33594,-16.94922 z m 0,0"
       id="path68"
       inkscape:connector-curvature="0" />
    <path
       style="fill:#545454;fill-opacity:1;fill-rule:nonzero;stroke:none"
       d="m 227.09766,294.76953 3.61328,-1.46094 -5.61328,-8.625 z m 0.39453,1.64844 0.69531,3.51953 -1.66797,0.67578 -3.45312,-17.48047 2.61718,-1.05859 9.66407,14.96875 -1.80469,0.73047 -1.94922,-3.01563 z m 0,0"
       id="path70"
       inkscape:connector-curvature="0" />
    <path
       style="fill:#545454;fill-opacity:1;fill-rule:nonzero;stroke:none"
       d="m 240.64453,283.92187 c 1.34766,-0.76953 1.90234,-1.66015 0.96484,-3.3125 l -0.82812,-1.45312 c -0.78125,-1.37109 -1.6875,-1.80469 -2.94922,-1.08594 l -1.64844,0.9375 3.19922,5.62891 z M 237,276.50391 c 2.39062,-1.35938 4.08203,-0.71094 5.36719,1.54687 l 0.70312,1.23828 c 0.95313,1.67188 0.95703,3.05078 -0.10937,4.20313 1.625,-0.375 2.78906,0.45703 3.71484,2.08593 l 1.34766,2.36719 c 0.38281,0.67578 0.76562,1.29297 1.34375,1.65235 l -1.71875,0.97656 c -0.44141,-0.32031 -0.75,-0.66406 -1.33203,-1.6836 L 244.95703,286.5 c -0.97656,-1.71875 -2.08984,-1.80469 -3.5,-1 l -1.19531,0.67969 3.69531,6.49609 -1.69531,0.96484 -8.65235,-15.21093 z m 0,0"
       id="path72"
       inkscape:connector-curvature="0" />
  </g>
</svg>
